# xmcd
#
# Track frame offsets: 
#        150
#        14047
#        31074
#        46325
#        62475
#        78794
#        98938
#        117158
#        136151
#        152633
#
# Disc length: 2237 seconds
#
# Revision: 0
# Processed by: cddbd v1.5.2PL0 Copyright (c) Steve Scherf et al.
# Submitted via: ExactAudioCopyFreeDBPlugin 1.0
#
DISCID=7208bb0a
DTITLE=Paula Koivuniemi - Elämästä
DYEAR=1900
DGENRE=
TTITLE0=Sinua, sinua rakastan
TTITLE1=Samanlainen onni
TTITLE2=Elämän nälkä
TTITLE3=Kun aika on
TTITLE4=Pettävällä jäällä
TTITLE5=Rakkaus on merkillinen maa
TTITLE6=Äiti
TTITLE7=Tiet
TTITLE8=Laulut kun kuolevat
TTITLE9=Viimeinen yö
EXTD=
EXTT0=
EXTT1=
EXTT2=
EXTT3=
EXTT4=
EXTT5=
EXTT6=
EXTT7=
EXTT8=
EXTT9=
PLAYORDER=
